<mxfile host="app.diagrams.net" modified="2024-05-27T08:21:38.291Z" agent="Mozilla/5.0 (Windows NT 10.0; Win64; x64) AppleWebKit/537.36 (KHTML, like Gecko) Chrome/125.0.0.0 Safari/537.36" etag="zqvL_jyMWExOjck7HpbQ" version="24.4.8" type="google">
  <diagram name="Страница — 1" id="p9NG9NeqG3dxyk-z_KSD">
    <mxGraphModel grid="1" page="1" gridSize="10" guides="1" tooltips="1" connect="1" arrows="1" fold="1" pageScale="1" pageWidth="827" pageHeight="1169" math="0" shadow="0">
      <root>
        <mxCell id="0" />
        <mxCell id="1" parent="0" />
        <mxCell id="y3GnIF_agUvY4PzfuaE1-45" style="edgeStyle=orthogonalEdgeStyle;rounded=0;orthogonalLoop=1;jettySize=auto;html=1;entryX=0.5;entryY=0;entryDx=0;entryDy=0;" edge="1" parent="1" source="y3GnIF_agUvY4PzfuaE1-39" target="y3GnIF_agUvY4PzfuaE1-40">
          <mxGeometry relative="1" as="geometry" />
        </mxCell>
        <mxCell id="y3GnIF_agUvY4PzfuaE1-39" value="&lt;font size=&quot;3&quot;&gt;Отримання карт признаків&lt;/font&gt;" style="rounded=0;whiteSpace=wrap;html=1;" vertex="1" parent="1">
          <mxGeometry x="280" y="100" width="170" height="80" as="geometry" />
        </mxCell>
        <mxCell id="y3GnIF_agUvY4PzfuaE1-46" style="edgeStyle=orthogonalEdgeStyle;rounded=0;orthogonalLoop=1;jettySize=auto;html=1;entryX=0.5;entryY=0;entryDx=0;entryDy=0;" edge="1" parent="1" source="y3GnIF_agUvY4PzfuaE1-40" target="y3GnIF_agUvY4PzfuaE1-42">
          <mxGeometry relative="1" as="geometry" />
        </mxCell>
        <mxCell id="y3GnIF_agUvY4PzfuaE1-40" value="&lt;font size=&quot;3&quot;&gt;Генерація обмежувальних рамок за замовчуванням для кожної карти признаків&lt;/font&gt;" style="rounded=0;whiteSpace=wrap;html=1;" vertex="1" parent="1">
          <mxGeometry x="280" y="220" width="170" height="110" as="geometry" />
        </mxCell>
        <mxCell id="y3GnIF_agUvY4PzfuaE1-47" style="edgeStyle=orthogonalEdgeStyle;rounded=0;orthogonalLoop=1;jettySize=auto;html=1;entryX=0.5;entryY=0;entryDx=0;entryDy=0;" edge="1" parent="1" source="y3GnIF_agUvY4PzfuaE1-42" target="y3GnIF_agUvY4PzfuaE1-43">
          <mxGeometry relative="1" as="geometry" />
        </mxCell>
        <mxCell id="y3GnIF_agUvY4PzfuaE1-42" value="&lt;font size=&quot;3&quot;&gt;Передбачення класа об&#39;єкту в кожній рамці&lt;/font&gt;" style="rounded=0;whiteSpace=wrap;html=1;" vertex="1" parent="1">
          <mxGeometry x="280" y="370" width="170" height="110" as="geometry" />
        </mxCell>
        <mxCell id="y3GnIF_agUvY4PzfuaE1-48" style="edgeStyle=orthogonalEdgeStyle;rounded=0;orthogonalLoop=1;jettySize=auto;html=1;" edge="1" parent="1" source="y3GnIF_agUvY4PzfuaE1-43" target="y3GnIF_agUvY4PzfuaE1-44">
          <mxGeometry relative="1" as="geometry" />
        </mxCell>
        <mxCell id="y3GnIF_agUvY4PzfuaE1-43" value="&lt;font size=&quot;3&quot;&gt;Передбачення зсувів по кординатам для кожної рамки&lt;/font&gt;" style="rounded=0;whiteSpace=wrap;html=1;" vertex="1" parent="1">
          <mxGeometry x="280" y="520" width="170" height="110" as="geometry" />
        </mxCell>
        <mxCell id="y3GnIF_agUvY4PzfuaE1-44" value="&lt;font size=&quot;3&quot;&gt;Пригнічення не-максимумів&lt;/font&gt;" style="rounded=0;whiteSpace=wrap;html=1;" vertex="1" parent="1">
          <mxGeometry x="280" y="670" width="170" height="80" as="geometry" />
        </mxCell>
        <mxCell id="y3GnIF_agUvY4PzfuaE1-49" value="" style="endArrow=none;html=1;rounded=0;" edge="1" parent="1">
          <mxGeometry width="50" height="50" relative="1" as="geometry">
            <mxPoint x="470" y="360" as="sourcePoint" />
            <mxPoint x="470" y="640" as="targetPoint" />
            <Array as="points">
              <mxPoint x="520" y="360" />
              <mxPoint x="520" y="500" />
              <mxPoint x="520" y="640" />
            </Array>
          </mxGeometry>
        </mxCell>
        <mxCell id="y3GnIF_agUvY4PzfuaE1-50" value="&lt;font style=&quot;font-size: 14px;&quot;&gt;Перший етап&lt;/font&gt;" style="text;html=1;align=center;verticalAlign=middle;whiteSpace=wrap;rounded=0;" vertex="1" parent="1">
          <mxGeometry x="480" y="125" width="90" height="30" as="geometry" />
        </mxCell>
        <mxCell id="y3GnIF_agUvY4PzfuaE1-51" value="&lt;span style=&quot;color: rgb(0, 0, 0); font-family: Helvetica; font-size: 14px; font-style: normal; font-variant-ligatures: normal; font-variant-caps: normal; letter-spacing: normal; orphans: 2; text-align: center; text-indent: 0px; text-transform: none; widows: 2; word-spacing: 0px; -webkit-text-stroke-width: 0px; white-space: normal; background-color: rgb(251, 251, 251); text-decoration-thickness: initial; text-decoration-style: initial; text-decoration-color: initial; float: none; display: inline !important;&quot;&gt;Другий етап&lt;/span&gt;" style="text;whiteSpace=wrap;html=1;" vertex="1" parent="1">
          <mxGeometry x="480" y="255" width="90" height="40" as="geometry" />
        </mxCell>
        <mxCell id="y3GnIF_agUvY4PzfuaE1-52" value="&lt;font style=&quot;font-size: 14px;&quot;&gt;Третій етап&lt;/font&gt;" style="text;html=1;align=center;verticalAlign=middle;whiteSpace=wrap;rounded=0;" vertex="1" parent="1">
          <mxGeometry x="540" y="480" width="90" height="30" as="geometry" />
        </mxCell>
        <mxCell id="y3GnIF_agUvY4PzfuaE1-53" value="&lt;span style=&quot;color: rgb(0, 0, 0); font-family: Helvetica; font-size: 14px; font-style: normal; font-variant-ligatures: normal; font-variant-caps: normal; font-weight: 400; letter-spacing: normal; orphans: 2; text-align: center; text-indent: 0px; text-transform: none; widows: 2; word-spacing: 0px; -webkit-text-stroke-width: 0px; white-space: normal; background-color: rgb(251, 251, 251); text-decoration-thickness: initial; text-decoration-style: initial; text-decoration-color: initial; display: inline !important; float: none;&quot;&gt;Четвертий етап&lt;/span&gt;" style="text;whiteSpace=wrap;html=1;" vertex="1" parent="1">
          <mxGeometry x="480" y="690" width="120" height="40" as="geometry" />
        </mxCell>
      </root>
    </mxGraphModel>
  </diagram>
</mxfile>
